<?xml version="1.0" encoding="UTF-8" standalone="no"?>
<!-- Created with Inkscape (http://www.inkscape.org/) -->

<svg
   width="210mm"
   height="297mm"
   viewBox="0 0 210 297"
   version="1.1"
   id="svg5"
   inkscape:version="1.2 (dc2aedaf03, 2022-05-15)"
   sodipodi:docname="logo_ml.svg"
   xmlns:inkscape="http://www.inkscape.org/namespaces/inkscape"
   xmlns:sodipodi="http://sodipodi.sourceforge.net/DTD/sodipodi-0.dtd"
   xmlns="http://www.w3.org/2000/svg"
   xmlns:svg="http://www.w3.org/2000/svg">
  <sodipodi:namedview
     id="namedview7"
     pagecolor="#ffffff"
     bordercolor="#000000"
     borderopacity="0.25"
     inkscape:showpageshadow="2"
     inkscape:pageopacity="0.0"
     inkscape:pagecheckerboard="0"
     inkscape:deskcolor="#d1d1d1"
     inkscape:document-units="mm"
     showgrid="false"
     inkscape:zoom="0.74564394"
     inkscape:cx="335.95123"
     inkscape:cy="561.9304"
     inkscape:window-width="1920"
     inkscape:window-height="1017"
     inkscape:window-x="1912"
     inkscape:window-y="-8"
     inkscape:window-maximized="1"
     inkscape:current-layer="layer1" />
  <defs
     id="defs2" />
  <g
     inkscape:label="Ebene 1"
     inkscape:groupmode="layer"
     id="layer1">
    <g
       id="g364"
       transform="matrix(1.4548678,0,0,0.93275851,-31.864832,9.4700325)"
       style="fill:#ffffff">
      <path
         style="fill:#ffffff;stroke-width:0.412999;stroke-linejoin:round"
         id="path251"
         d="m 8.6878908,147.26992 c 2.0023692,-3.00547 4.8062972,-5.27523 7.8378732,-7.19303 1.19261,-0.75445 2.440375,-1.41797 3.660562,-2.12695 8.477849,-4.17696 17.644457,-6.78831 26.930713,-8.43042 1.985597,-0.35112 3.986694,-0.6081 5.980044,-0.91215 7.369503,-0.83483 14.805892,-1.68371 22.235062,-1.20779 4.028032,0.25805 6.93884,0.77702 10.918266,1.37083 5.650735,0.95029 11.183056,2.44487 16.620139,4.23698 3.6637,1.20759 9.11995,3.24413 12.72727,4.48271 2.20332,0.75651 4.42248,1.46607 6.63371,2.1991 6.45782,1.87413 13.00989,3.83383 19.79719,3.9821 2.43137,0.0531 4.88988,0.0358 7.28593,-0.38053 8.72461,-1.516 11.4108,-3.7556 19.74678,-7.93018 16.70478,-9.54096 8.41284,-4.71447 24.87698,-14.47744 0,0 -1.78399,-1.15539 -1.78399,-1.15539 v 0 c -16.46681,9.79902 -8.11153,5.02053 -25.07059,14.32715 -8.64238,3.98066 -11.34152,6.07729 -20.23877,7.45905 -2.4132,0.37477 -4.87932,0.37134 -7.32033,0.29771 -6.76113,-0.20395 -13.29363,-2.1337 -19.72943,-4.0147 -2.20967,-0.73468 -4.42785,-1.44427 -6.62901,-2.20405 -4.00064,-1.3809 -8.79493,-3.21171 -12.8315,-4.54669 -5.465572,-1.80759 -11.029166,-3.30596 -16.714197,-4.2459 -3.932931,-0.57199 -6.963542,-1.09478 -10.943836,-1.33959 -7.423555,-0.45659 -14.844887,0.43527 -22.203177,1.30119 -1.992754,0.3104 -3.992933,0.5764 -5.978263,0.93122 -9.358505,1.67254 -18.596962,4.27963 -27.193906,8.38114 -1.250935,0.70041 -2.528171,1.35579 -3.752804,2.10123 -3.145914,1.91495 -5.9919674,4.13108 -8.2432892,7.05711 0,0 3.382573,2.03729 3.382573,2.03729 z" />
      <path
         style="fill:#ffffff;stroke-width:0.412999;stroke-linejoin:round"
         id="path253"
         d="m 15.181697,130.92358 c 2.330402,-1.80279 5.23853,-2.56927 8.081593,-3.13334 3.754674,-0.74494 5.315797,-0.79647 9.24051,-1.18774 6.804028,-0.16674 13.78689,-0.16322 20.332843,1.96055 3.525805,1.14391 4.00786,1.63672 7.143707,3.45007 0.684327,1.71469 0.06115,0.40773 3.198678,2.91391 0.938067,0.7493 1.869419,1.50706 2.812759,2.24971 1.467858,1.15558 3.665548,2.8967 5.288388,3.87928 1.88549,1.14161 3.83544,2.17319 5.753158,3.25979 4.246137,1.75225 8.775547,2.7492 13.390303,2.22905 3.79489,-0.42774 4.923121,-1.10647 8.602665,-2.44701 1.655349,-0.78156 3.326449,-1.53058 4.966039,-2.34468 1.83889,-0.91307 3.62885,-1.92254 5.46757,-2.83593 4.75766,-2.36339 7.56706,-3.6894 12.64587,-5.43904 6.25012,-2.15316 7.78065,-2.29392 14.25019,-3.71935 6.99776,-0.66732 8.2868,-1.17133 15.39118,-0.27823 5.58109,0.7016 11.61203,2.36998 16.95005,4.03894 6.70752,2.09713 12.20345,4.26752 18.81025,6.74319 9.71859,3.75111 19.44855,7.47018 29.20277,11.12747 0,0 -2.14523,-1.67879 -2.14523,-1.67879 v 0 c -9.73787,-3.61331 -19.44645,-7.30103 -29.126,-11.06832 -6.76468,-2.55447 -12.11145,-4.69128 -18.97523,-6.84234 -5.36285,-1.68068 -11.49554,-3.37611 -17.10573,-4.07608 -7.12343,-0.88878 -8.47799,-0.3734 -15.48724,0.30976 -2.42768,0.53637 -4.87746,0.981 -7.28304,1.60911 -4.59096,1.19872 -9.36295,2.84125 -13.73476,4.68819 -4.94605,2.08954 -6.82889,3.33142 -11.59474,5.61041 -1.656967,0.79235 -3.346972,1.51366 -5.020456,2.27049 -3.67257,1.24751 -4.88751,1.91963 -8.652795,2.27654 -4.614188,0.43738 -9.142553,-0.61187 -13.353225,-2.43227 0.969357,0.77958 2.087081,1.66146 -2.250003,-1.48017 -4.929704,-3.5709 -9.26234,-7.92608 -14.719432,-10.76178 -3.145139,-1.76012 -3.608917,-2.23191 -7.125547,-3.31779 -6.573604,-2.02983 -13.546206,-1.94838 -20.350014,-1.82967 -4.016653,0.36273 -5.581263,0.40386 -9.432682,1.10955 -2.978897,0.54581 -6.005932,1.29867 -8.513722,3.07185 0,0 3.341323,2.07467 3.341323,2.07467 z" />
      <path
         style="fill:#ffffff;stroke-width:0.412999;stroke-linejoin:round"
         id="path255"
         d="m 34.665142,150.90116 c 0.402595,-0.13817 0.814316,-0.25215 1.207786,-0.41449 8.393631,-3.46301 -6.2068,2.20586 8.143668,-3.54521 2.945924,-1.18061 5.921883,-2.28512 8.894,-3.39814 10.331122,-3.86885 13.463437,-4.93582 24.169471,-8.75491 10.477497,-3.46353 14.470745,-4.88464 24.831663,-7.93591 3.28707,-0.96804 6.55741,-2.01611 9.90165,-2.7631 5.92375,-1.32316 8.50755,-1.95566 14.06857,0.10487 0.84247,0.31216 1.38543,1.14427 2.07815,1.71641 4.54244,3.94026 7.66215,9.13513 11.78567,13.45537 1.28358,1.34482 2.59336,2.68507 4.07562,3.80714 4.95735,3.75275 7.90462,4.07124 14.26852,6.32199 3.03982,0.0317 6.08555,0.28726 9.11947,0.0952 3.99888,-0.2531 7.97031,-0.85158 11.93554,-1.42785 6.36406,-0.92489 24.03884,-4.08634 30.17488,-5.16629 0,0 -1.58858,-1.11291 -1.58858,-1.11291 v 0 c -10.2402,1.75832 -20.23691,3.5998 -30.54984,4.88457 -4.06285,0.50614 -8.1351,1.01809 -12.22628,1.17648 -3.11025,0.12041 -6.22099,-0.22794 -9.33148,-0.3419 -1.27511,-0.0781 -2.62467,0.20201 -3.82533,-0.23434 -1.80685,-0.65664 -3.40939,-1.80903 -4.95246,-2.95569 -1.49614,-1.11178 -2.82259,-2.44297 -4.11723,-3.78401 -4.15988,-4.30894 -7.28377,-9.51152 -11.75791,-13.53824 -5.18452,-3.27523 -7.49618,-6.06328 -13.6457,-5.92207 -4.56133,0.10474 -13.54481,3.13805 -17.389281,4.33861 -8.564139,2.67443 -16.124058,5.21866 -24.678621,8.04869 -8.20592,2.81455 -16.403794,5.65256 -24.612838,8.45798 -3.093366,1.05714 -6.203373,2.06569 -9.289352,3.14421 -1.949037,0.68117 -3.875452,1.42543 -5.814536,2.13444 -0.942075,0.34447 -1.87285,0.72253 -2.828925,1.02599 -0.402018,0.1276 -0.824907,0.17642 -1.237361,0.26463 0,0 3.191066,2.31845 3.191066,2.31845 z" />
    </g>
  </g>
</svg>
